<?xml version="1.0" encoding="utf-8"?><svg xmlns="http://www.w3.org/2000/svg" xmlns:xlink="http://www.w3.org/1999/xlink"><symbol viewBox="0 0 4 8" id="arrow" xmlns="http://www.w3.org/2000/svg"><style/><g id="aLastest Articles"><g id="aArticle 1"><g id="aRead more"><path id="aKształt 1" d="M.02 8l3.99-4L.02-.01" stroke-width="2"/></g></g></g></symbol><symbol viewBox="0 0 32 32" id="social_facebook" xmlns="http://www.w3.org/2000/svg"><path d="M12.054 32h5.996l.004-16 5.446-.002.584-5.514H18.05l.008-2.76c0-1.438.098-2.208 2.162-2.208h3.812V0h-5.466c-5.298 0-6.518 2.738-6.518 7.236l.006 3.248-4.022.002V16h4.022v16z"/></symbol><symbol viewBox="0 0 32 32" id="social_instagram" xmlns="http://www.w3.org/2000/svg"><path d="M30.556 0H1.444C.648 0 0 .646 0 1.442v29.116C0 31.352.648 32 1.444 32h29.112c.796 0 1.444-.648 1.444-1.442V1.442C32 .646 31.352 0 30.556 0zm-8.972 16a5.584 5.584 0 11-11.168 0 5.584 5.584 0 0111.168 0zM28 28H4V14h2.634a9.56 9.56 0 00-.218 2c0 5.284 4.3 9.584 9.584 9.584s9.584-4.3 9.584-9.584a9.56 9.56 0 00-.218-2H28v14zm0-18h-6V4h6v6z"/></symbol><symbol viewBox="0 0 32 32.646" id="social_pinterest" xmlns="http://www.w3.org/2000/svg"><path d="M8.06 18.506c1.546-2.734-.498-3.334-.818-5.316-1.31-8.1 9.344-13.632 14.924-7.972 3.86 3.92 1.318 15.972-4.906 14.72-5.962-1.198 2.92-10.792-1.838-12.674-3.868-1.532-5.922 4.68-4.088 7.768C10.258 20.342 7.942 25.342 8.88 32c3.04-2.206 4.066-6.432 4.906-10.838 1.528.93 2.346 1.896 4.294 2.046 7.186.558 11.202-7.174 10.218-14.31-.872-6.324-7.178-9.544-13.902-8.79C9.08.704 3.78 5.002 3.56 11.148c-.134 3.752.93 6.568 4.5 7.358z"/></symbol><symbol viewBox="0 0 32.004 32" id="social_twitter" xmlns="http://www.w3.org/2000/svg"><path d="M31.118 3.48a13.188 13.188 0 01-4.17 1.594A6.55 6.55 0 0022.156 3a6.566 6.566 0 00-6.396 8.06A18.64 18.64 0 012.228 4.2a6.516 6.516 0 00-.888 3.3 6.563 6.563 0 002.92 5.464 6.567 6.567 0 01-2.974-.824v.082a6.572 6.572 0 005.266 6.438 6.566 6.566 0 01-2.966.112 6.574 6.574 0 006.132 4.56 13.176 13.176 0 01-8.154 2.81c-.53 0-1.052-.032-1.566-.092A18.59 18.59 0 0010.062 29c12.076 0 18.68-10.004 18.68-18.68 0-.284-.006-.568-.02-.85a13.232 13.232 0 003.28-3.394 13.11 13.11 0 01-3.77 1.034 6.585 6.585 0 002.886-3.63z"/></symbol></svg>